<svg width="1440" height="914" viewBox="0 0 1440 914" fill="none" xmlns="http://www.w3.org/2000/svg">
<g opacity="0.15">
<rect x="43" y="31" width="5" height="5" rx="2.5" fill="white"/>
<rect x="114" y="31" width="5" height="5" rx="2.5" fill="white"/>
<rect x="185" y="31" width="5" height="5" rx="2.5" fill="white"/>
<rect x="256" y="31" width="5" height="5" rx="2.5" fill="white"/>
<rect x="327" y="31" width="5" height="5" rx="2.5" fill="white"/>
<rect x="398" y="31" width="5" height="5" rx="2.5" fill="white"/>
<rect x="469" y="31" width="5" height="5" rx="2.5" fill="white"/>
<rect x="540" y="31" width="5" height="5" rx="2.5" fill="white"/>
<rect x="611" y="31" width="5" height="5" rx="2.5" fill="white"/>
<rect x="682" y="31" width="5" height="5" rx="2.5" fill="white"/>
<rect x="753" y="31" width="5" height="5" rx="2.5" fill="white"/>
<rect x="824" y="31" width="5" height="5" rx="2.5" fill="white"/>
<rect x="895" y="31" width="5" height="5" rx="2.5" fill="white"/>
<rect x="966" y="31" width="5" height="5" rx="2.5" fill="white"/>
<rect x="1037" y="31" width="5" height="5" rx="2.5" fill="white"/>
<rect x="1108" y="31" width="5" height="5" rx="2.5" fill="white"/>
<rect x="1179" y="31" width="5" height="5" rx="2.5" fill="white"/>
<rect x="1250" y="31" width="5" height="5" rx="2.5" fill="white"/>
<rect x="1321" y="31" width="5" height="5" rx="2.5" fill="white"/>
<rect x="1392" y="31" width="5" height="5" rx="2.5" fill="white"/>
<rect x="43" y="102" width="5" height="5" rx="2.5" fill="white"/>
<rect x="114" y="102" width="5" height="5" rx="2.5" fill="white"/>
<rect x="185" y="102" width="5" height="5" rx="2.5" fill="white"/>
<rect x="256" y="102" width="5" height="5" rx="2.5" fill="white"/>
<rect x="327" y="102" width="5" height="5" rx="2.5" fill="white"/>
<rect x="398" y="102" width="5" height="5" rx="2.5" fill="white"/>
<rect x="469" y="102" width="5" height="5" rx="2.5" fill="white"/>
<rect x="540" y="102" width="5" height="5" rx="2.5" fill="white"/>
<rect x="611" y="102" width="5" height="5" rx="2.5" fill="white"/>
<rect x="682" y="102" width="5" height="5" rx="2.5" fill="white"/>
<rect x="753" y="102" width="5" height="5" rx="2.5" fill="white"/>
<rect x="824" y="102" width="5" height="5" rx="2.5" fill="white"/>
<rect x="895" y="102" width="5" height="5" rx="2.5" fill="white"/>
<rect x="966" y="102" width="5" height="5" rx="2.5" fill="white"/>
<rect x="1037" y="102" width="5" height="5" rx="2.5" fill="white"/>
<rect x="1108" y="102" width="5" height="5" rx="2.5" fill="white"/>
<rect x="1179" y="102" width="5" height="5" rx="2.5" fill="white"/>
<rect x="1250" y="102" width="5" height="5" rx="2.5" fill="white"/>
<rect x="1321" y="102" width="5" height="5" rx="2.5" fill="white"/>
<rect x="1392" y="102" width="5" height="5" rx="2.5" fill="white"/>
<rect x="43" y="173" width="5" height="5" rx="2.5" fill="white"/>
<rect x="114" y="173" width="5" height="5" rx="2.5" fill="white"/>
<rect x="185" y="173" width="5" height="5" rx="2.5" fill="white"/>
<rect x="256" y="173" width="5" height="5" rx="2.5" fill="white"/>
<rect x="327" y="173" width="5" height="5" rx="2.5" fill="white"/>
<rect x="398" y="173" width="5" height="5" rx="2.5" fill="white"/>
<rect x="469" y="173" width="5" height="5" rx="2.5" fill="white"/>
<rect x="540" y="173" width="5" height="5" rx="2.5" fill="white"/>
<rect x="611" y="173" width="5" height="5" rx="2.5" fill="white"/>
<rect x="682" y="173" width="5" height="5" rx="2.5" fill="white"/>
<rect x="753" y="173" width="5" height="5" rx="2.5" fill="white"/>
<rect x="824" y="173" width="5" height="5" rx="2.5" fill="white"/>
<rect x="895" y="173" width="5" height="5" rx="2.5" fill="white"/>
<rect x="966" y="173" width="5" height="5" rx="2.5" fill="white"/>
<rect x="1037" y="173" width="5" height="5" rx="2.5" fill="white"/>
<rect x="1108" y="173" width="5" height="5" rx="2.5" fill="white"/>
<rect x="1179" y="173" width="5" height="5" rx="2.5" fill="white"/>
<rect x="1250" y="173" width="5" height="5" rx="2.5" fill="white"/>
<rect x="1321" y="173" width="5" height="5" rx="2.5" fill="white"/>
<rect x="1392" y="173" width="5" height="5" rx="2.5" fill="white"/>
<rect x="43" y="244" width="5" height="5" rx="2.5" fill="white"/>
<rect x="114" y="244" width="5" height="5" rx="2.5" fill="white"/>
<rect x="185" y="244" width="5" height="5" rx="2.5" fill="white"/>
<rect x="256" y="244" width="5" height="5" rx="2.5" fill="white"/>
<rect x="327" y="244" width="5" height="5" rx="2.5" fill="white"/>
<rect x="398" y="244" width="5" height="5" rx="2.5" fill="white"/>
<rect x="469" y="244" width="5" height="5" rx="2.5" fill="white"/>
<rect x="540" y="244" width="5" height="5" rx="2.5" fill="white"/>
<rect x="611" y="244" width="5" height="5" rx="2.5" fill="white"/>
<rect x="682" y="244" width="5" height="5" rx="2.5" fill="white"/>
<rect x="753" y="244" width="5" height="5" rx="2.5" fill="white"/>
<rect x="824" y="244" width="5" height="5" rx="2.5" fill="white"/>
<rect x="895" y="244" width="5" height="5" rx="2.5" fill="white"/>
<rect x="966" y="244" width="5" height="5" rx="2.5" fill="white"/>
<rect x="1037" y="244" width="5" height="5" rx="2.5" fill="white"/>
<rect x="1108" y="244" width="5" height="5" rx="2.5" fill="white"/>
<rect x="1179" y="244" width="5" height="5" rx="2.5" fill="white"/>
<rect x="1250" y="244" width="5" height="5" rx="2.5" fill="white"/>
<rect x="1321" y="244" width="5" height="5" rx="2.5" fill="white"/>
<rect x="1392" y="244" width="5" height="5" rx="2.5" fill="white"/>
<rect x="43" y="315" width="5" height="5" rx="2.5" fill="white"/>
<rect x="114" y="315" width="5" height="5" rx="2.5" fill="white"/>
<rect x="185" y="315" width="5" height="5" rx="2.5" fill="white"/>
<rect x="256" y="315" width="5" height="5" rx="2.5" fill="white"/>
<rect x="327" y="315" width="5" height="5" rx="2.5" fill="white"/>
<rect x="398" y="315" width="5" height="5" rx="2.5" fill="white"/>
<rect x="469" y="315" width="5" height="5" rx="2.5" fill="white"/>
<rect x="540" y="315" width="5" height="5" rx="2.5" fill="white"/>
<rect x="611" y="315" width="5" height="5" rx="2.5" fill="white"/>
<rect x="682" y="315" width="5" height="5" rx="2.5" fill="white"/>
<rect x="753" y="315" width="5" height="5" rx="2.5" fill="white"/>
<rect x="824" y="315" width="5" height="5" rx="2.5" fill="white"/>
<rect x="895" y="315" width="5" height="5" rx="2.5" fill="white"/>
<rect x="966" y="315" width="5" height="5" rx="2.5" fill="white"/>
<rect x="1037" y="315" width="5" height="5" rx="2.5" fill="white"/>
<rect x="1108" y="315" width="5" height="5" rx="2.5" fill="white"/>
<rect x="1179" y="315" width="5" height="5" rx="2.5" fill="white"/>
<rect x="1250" y="315" width="5" height="5" rx="2.5" fill="white"/>
<rect x="1321" y="315" width="5" height="5" rx="2.5" fill="white"/>
<rect x="1392" y="315" width="5" height="5" rx="2.5" fill="white"/>
<rect x="43" y="386" width="5" height="5" rx="2.5" fill="white"/>
<rect x="114" y="386" width="5" height="5" rx="2.5" fill="white"/>
<rect x="185" y="386" width="5" height="5" rx="2.5" fill="white"/>
<rect x="256" y="386" width="5" height="5" rx="2.5" fill="white"/>
<rect x="327" y="386" width="5" height="5" rx="2.5" fill="white"/>
<rect x="398" y="386" width="5" height="5" rx="2.5" fill="white"/>
<rect x="469" y="386" width="5" height="5" rx="2.5" fill="white"/>
<rect x="540" y="386" width="5" height="5" rx="2.5" fill="white"/>
<rect x="611" y="386" width="5" height="5" rx="2.5" fill="white"/>
<rect x="682" y="386" width="5" height="5" rx="2.5" fill="white"/>
<rect x="753" y="386" width="5" height="5" rx="2.5" fill="white"/>
<rect x="824" y="386" width="5" height="5" rx="2.5" fill="white"/>
<rect x="895" y="386" width="5" height="5" rx="2.5" fill="white"/>
<rect x="966" y="386" width="5" height="5" rx="2.5" fill="white"/>
<rect x="1037" y="386" width="5" height="5" rx="2.5" fill="white"/>
<rect x="1108" y="386" width="5" height="5" rx="2.5" fill="white"/>
<rect x="1179" y="386" width="5" height="5" rx="2.5" fill="white"/>
<rect x="1250" y="386" width="5" height="5" rx="2.5" fill="white"/>
<rect x="1321" y="386" width="5" height="5" rx="2.5" fill="white"/>
<rect x="1392" y="386" width="5" height="5" rx="2.5" fill="white"/>
<rect x="43" y="457" width="5" height="5" rx="2.5" fill="white"/>
<rect x="114" y="457" width="5" height="5" rx="2.5" fill="white"/>
<rect x="185" y="457" width="5" height="5" rx="2.5" fill="white"/>
<rect x="256" y="457" width="5" height="5" rx="2.5" fill="white"/>
<rect x="327" y="457" width="5" height="5" rx="2.5" fill="white"/>
<rect x="398" y="457" width="5" height="5" rx="2.5" fill="white"/>
<rect x="469" y="457" width="5" height="5" rx="2.5" fill="white"/>
<rect x="540" y="457" width="5" height="5" rx="2.5" fill="white"/>
<rect x="611" y="457" width="5" height="5" rx="2.5" fill="white"/>
<rect x="682" y="457" width="5" height="5" rx="2.5" fill="white"/>
<rect x="753" y="457" width="5" height="5" rx="2.5" fill="white"/>
<rect x="824" y="457" width="5" height="5" rx="2.5" fill="white"/>
<rect x="895" y="457" width="5" height="5" rx="2.5" fill="white"/>
<rect x="966" y="457" width="5" height="5" rx="2.5" fill="white"/>
<rect x="1037" y="457" width="5" height="5" rx="2.5" fill="white"/>
<rect x="1108" y="457" width="5" height="5" rx="2.5" fill="white"/>
<rect x="1179" y="457" width="5" height="5" rx="2.5" fill="white"/>
<rect x="1250" y="457" width="5" height="5" rx="2.5" fill="white"/>
<rect x="1321" y="457" width="5" height="5" rx="2.5" fill="white"/>
<rect x="1392" y="457" width="5" height="5" rx="2.5" fill="white"/>
<rect x="43" y="528" width="5" height="5" rx="2.5" fill="white"/>
<rect x="114" y="528" width="5" height="5" rx="2.5" fill="white"/>
<rect x="185" y="528" width="5" height="5" rx="2.5" fill="white"/>
<rect x="256" y="528" width="5" height="5" rx="2.5" fill="white"/>
<rect x="327" y="528" width="5" height="5" rx="2.5" fill="white"/>
<rect x="398" y="528" width="5" height="5" rx="2.5" fill="white"/>
<rect x="469" y="528" width="5" height="5" rx="2.5" fill="white"/>
<rect x="540" y="528" width="5" height="5" rx="2.5" fill="white"/>
<rect x="611" y="528" width="5" height="5" rx="2.5" fill="white"/>
<rect x="682" y="528" width="5" height="5" rx="2.5" fill="white"/>
<rect x="753" y="528" width="5" height="5" rx="2.5" fill="white"/>
<rect x="824" y="528" width="5" height="5" rx="2.5" fill="white"/>
<rect x="895" y="528" width="5" height="5" rx="2.5" fill="white"/>
<rect x="966" y="528" width="5" height="5" rx="2.5" fill="white"/>
<rect x="1037" y="528" width="5" height="5" rx="2.5" fill="white"/>
<rect x="1108" y="528" width="5" height="5" rx="2.5" fill="white"/>
<rect x="1179" y="528" width="5" height="5" rx="2.5" fill="white"/>
<rect x="1250" y="528" width="5" height="5" rx="2.5" fill="white"/>
<rect x="1321" y="528" width="5" height="5" rx="2.5" fill="white"/>
<rect x="1392" y="528" width="5" height="5" rx="2.5" fill="white"/>
<rect x="43" y="599" width="5" height="5" rx="2.5" fill="white"/>
<rect x="114" y="599" width="5" height="5" rx="2.5" fill="white"/>
<rect x="185" y="599" width="5" height="5" rx="2.5" fill="white"/>
<rect x="256" y="599" width="5" height="5" rx="2.5" fill="white"/>
<rect x="327" y="599" width="5" height="5" rx="2.5" fill="white"/>
<rect x="398" y="599" width="5" height="5" rx="2.5" fill="white"/>
<rect x="469" y="599" width="5" height="5" rx="2.5" fill="white"/>
<rect x="540" y="599" width="5" height="5" rx="2.5" fill="white"/>
<rect x="611" y="599" width="5" height="5" rx="2.5" fill="white"/>
<rect x="682" y="599" width="5" height="5" rx="2.5" fill="white"/>
<rect x="753" y="599" width="5" height="5" rx="2.5" fill="white"/>
<rect x="824" y="599" width="5" height="5" rx="2.5" fill="white"/>
<rect x="895" y="599" width="5" height="5" rx="2.5" fill="white"/>
<rect x="966" y="599" width="5" height="5" rx="2.5" fill="white"/>
<rect x="1037" y="599" width="5" height="5" rx="2.5" fill="white"/>
<rect x="1108" y="599" width="5" height="5" rx="2.5" fill="white"/>
<rect x="1179" y="599" width="5" height="5" rx="2.5" fill="white"/>
<rect x="1250" y="599" width="5" height="5" rx="2.5" fill="white"/>
<rect x="1321" y="599" width="5" height="5" rx="2.5" fill="white"/>
<rect x="1392" y="599" width="5" height="5" rx="2.5" fill="white"/>
<rect x="43" y="670" width="5" height="5" rx="2.5" fill="white"/>
<rect x="114" y="670" width="5" height="5" rx="2.5" fill="white"/>
<rect x="185" y="670" width="5" height="5" rx="2.5" fill="white"/>
<rect x="256" y="670" width="5" height="5" rx="2.5" fill="white"/>
<rect x="327" y="670" width="5" height="5" rx="2.5" fill="white"/>
<rect x="398" y="670" width="5" height="5" rx="2.5" fill="white"/>
<rect x="469" y="670" width="5" height="5" rx="2.5" fill="white"/>
<rect x="540" y="670" width="5" height="5" rx="2.5" fill="white"/>
<rect x="611" y="670" width="5" height="5" rx="2.5" fill="white"/>
<rect x="682" y="670" width="5" height="5" rx="2.5" fill="white"/>
<rect x="753" y="670" width="5" height="5" rx="2.5" fill="white"/>
<rect x="824" y="670" width="5" height="5" rx="2.5" fill="white"/>
<rect x="895" y="670" width="5" height="5" rx="2.5" fill="white"/>
<rect x="966" y="670" width="5" height="5" rx="2.5" fill="white"/>
<rect x="1037" y="670" width="5" height="5" rx="2.5" fill="white"/>
<rect x="1108" y="670" width="5" height="5" rx="2.5" fill="white"/>
<rect x="1179" y="670" width="5" height="5" rx="2.5" fill="white"/>
<rect x="1250" y="670" width="5" height="5" rx="2.5" fill="white"/>
<rect x="1321" y="670" width="5" height="5" rx="2.5" fill="white"/>
<rect x="1392" y="670" width="5" height="5" rx="2.5" fill="white"/>
<rect x="43" y="741" width="5" height="5" rx="2.5" fill="white"/>
<rect x="114" y="741" width="5" height="5" rx="2.5" fill="white"/>
<rect x="185" y="741" width="5" height="5" rx="2.5" fill="white"/>
<rect x="256" y="741" width="5" height="5" rx="2.5" fill="white"/>
<rect x="327" y="741" width="5" height="5" rx="2.5" fill="white"/>
<rect x="398" y="741" width="5" height="5" rx="2.5" fill="white"/>
<rect x="469" y="741" width="5" height="5" rx="2.5" fill="white"/>
<rect x="540" y="741" width="5" height="5" rx="2.5" fill="white"/>
<rect x="611" y="741" width="5" height="5" rx="2.5" fill="white"/>
<rect x="682" y="741" width="5" height="5" rx="2.5" fill="white"/>
<rect x="753" y="741" width="5" height="5" rx="2.5" fill="white"/>
<rect x="824" y="741" width="5" height="5" rx="2.5" fill="white"/>
<rect x="895" y="741" width="5" height="5" rx="2.5" fill="white"/>
<rect x="966" y="741" width="5" height="5" rx="2.5" fill="white"/>
<rect x="1037" y="741" width="5" height="5" rx="2.5" fill="white"/>
<rect x="1108" y="741" width="5" height="5" rx="2.5" fill="white"/>
<rect x="1179" y="741" width="5" height="5" rx="2.5" fill="white"/>
<rect x="1250" y="741" width="5" height="5" rx="2.5" fill="white"/>
<rect x="1321" y="741" width="5" height="5" rx="2.5" fill="white"/>
<rect x="1392" y="741" width="5" height="5" rx="2.5" fill="white"/>
<rect x="43" y="812" width="5" height="5" rx="2.5" fill="white"/>
<rect x="114" y="812" width="5" height="5" rx="2.5" fill="white"/>
<rect x="185" y="812" width="5" height="5" rx="2.5" fill="white"/>
<rect x="256" y="812" width="5" height="5" rx="2.5" fill="white"/>
<rect x="327" y="812" width="5" height="5" rx="2.5" fill="white"/>
<rect x="398" y="812" width="5" height="5" rx="2.5" fill="white"/>
<rect x="469" y="812" width="5" height="5" rx="2.5" fill="white"/>
<rect x="540" y="812" width="5" height="5" rx="2.5" fill="white"/>
<rect x="611" y="812" width="5" height="5" rx="2.5" fill="white"/>
<rect x="682" y="812" width="5" height="5" rx="2.5" fill="white"/>
<rect x="753" y="812" width="5" height="5" rx="2.5" fill="white"/>
<rect x="824" y="812" width="5" height="5" rx="2.5" fill="white"/>
<rect x="895" y="812" width="5" height="5" rx="2.5" fill="white"/>
<rect x="966" y="812" width="5" height="5" rx="2.5" fill="white"/>
<rect x="1037" y="812" width="5" height="5" rx="2.5" fill="white"/>
<rect x="1108" y="812" width="5" height="5" rx="2.5" fill="white"/>
<rect x="1179" y="812" width="5" height="5" rx="2.5" fill="white"/>
<rect x="1250" y="812" width="5" height="5" rx="2.5" fill="white"/>
<rect x="1321" y="812" width="5" height="5" rx="2.5" fill="white"/>
<rect x="1392" y="812" width="5" height="5" rx="2.5" fill="white"/>
<rect x="43" y="883" width="5" height="5" rx="2.5" fill="white"/>
<rect x="114" y="883" width="5" height="5" rx="2.5" fill="white"/>
<rect x="185" y="883" width="5" height="5" rx="2.5" fill="white"/>
<rect x="256" y="883" width="5" height="5" rx="2.5" fill="white"/>
<rect x="327" y="883" width="5" height="5" rx="2.5" fill="white"/>
<rect x="398" y="883" width="5" height="5" rx="2.5" fill="white"/>
<rect x="469" y="883" width="5" height="5" rx="2.5" fill="white"/>
<rect x="540" y="883" width="5" height="5" rx="2.5" fill="white"/>
<rect x="611" y="883" width="5" height="5" rx="2.5" fill="white"/>
<rect x="682" y="883" width="5" height="5" rx="2.5" fill="white"/>
<rect x="753" y="883" width="5" height="5" rx="2.5" fill="white"/>
<rect x="824" y="883" width="5" height="5" rx="2.5" fill="white"/>
<rect x="895" y="883" width="5" height="5" rx="2.5" fill="white"/>
<rect x="966" y="883" width="5" height="5" rx="2.5" fill="white"/>
<rect x="1037" y="883" width="5" height="5" rx="2.5" fill="white"/>
<rect x="1108" y="883" width="5" height="5" rx="2.5" fill="white"/>
<rect x="1179" y="883" width="5" height="5" rx="2.5" fill="white"/>
<rect x="1250" y="883" width="5" height="5" rx="2.5" fill="white"/>
<rect x="1321" y="883" width="5" height="5" rx="2.5" fill="white"/>
<rect x="1392" y="883" width="5" height="5" rx="2.5" fill="white"/>
</g>
</svg>
