<svg width="1440" height="1638" viewBox="0 0 1440 1638" fill="none" xmlns="http://www.w3.org/2000/svg">
<g opacity="0.15">
<rect x="13" width="5" height="5" rx="2.5" fill="white"/>
<rect x="84" width="5" height="5" rx="2.5" fill="white"/>
<rect x="155" width="5" height="5" rx="2.5" fill="white"/>
<rect x="226" width="5" height="5" rx="2.5" fill="white"/>
<rect x="297" width="5" height="5" rx="2.5" fill="white"/>
<rect x="368" width="5" height="5" rx="2.5" fill="white"/>
<rect x="439" width="5" height="5" rx="2.5" fill="white"/>
<rect x="510" width="5" height="5" rx="2.5" fill="white"/>
<rect x="581" width="5" height="5" rx="2.5" fill="white"/>
<rect x="652" width="5" height="5" rx="2.5" fill="white"/>
<rect x="723" width="5" height="5" rx="2.5" fill="white"/>
<rect x="794" width="5" height="5" rx="2.5" fill="white"/>
<rect x="865" width="5" height="5" rx="2.5" fill="white"/>
<rect x="936" width="5" height="5" rx="2.5" fill="white"/>
<rect x="1007" width="5" height="5" rx="2.5" fill="white"/>
<rect x="1078" width="5" height="5" rx="2.5" fill="white"/>
<rect x="1149" width="5" height="5" rx="2.5" fill="white"/>
<rect x="1220" width="5" height="5" rx="2.5" fill="white"/>
<rect x="1291" width="5" height="5" rx="2.5" fill="white"/>
<rect x="1362" width="5" height="5" rx="2.5" fill="white"/>
<rect x="1433" width="5" height="5" rx="2.5" fill="white"/>
<rect x="13" y="71" width="5" height="5" rx="2.5" fill="white"/>
<rect x="84" y="71" width="5" height="5" rx="2.5" fill="white"/>
<rect x="155" y="71" width="5" height="5" rx="2.5" fill="white"/>
<rect x="226" y="71" width="5" height="5" rx="2.5" fill="white"/>
<rect x="297" y="71" width="5" height="5" rx="2.5" fill="white"/>
<rect x="368" y="71" width="5" height="5" rx="2.5" fill="white"/>
<rect x="439" y="71" width="5" height="5" rx="2.5" fill="white"/>
<rect x="510" y="71" width="5" height="5" rx="2.5" fill="white"/>
<rect x="581" y="71" width="5" height="5" rx="2.5" fill="white"/>
<rect x="652" y="71" width="5" height="5" rx="2.5" fill="white"/>
<rect x="723" y="71" width="5" height="5" rx="2.5" fill="white"/>
<rect x="794" y="71" width="5" height="5" rx="2.5" fill="white"/>
<rect x="865" y="71" width="5" height="5" rx="2.5" fill="white"/>
<rect x="936" y="71" width="5" height="5" rx="2.5" fill="white"/>
<rect x="1007" y="71" width="5" height="5" rx="2.5" fill="white"/>
<rect x="1078" y="71" width="5" height="5" rx="2.5" fill="white"/>
<rect x="1149" y="71" width="5" height="5" rx="2.5" fill="white"/>
<rect x="1220" y="71" width="5" height="5" rx="2.5" fill="white"/>
<rect x="1291" y="71" width="5" height="5" rx="2.5" fill="white"/>
<rect x="1362" y="71" width="5" height="5" rx="2.5" fill="white"/>
<rect x="1433" y="71" width="5" height="5" rx="2.5" fill="white"/>
<rect x="13" y="142" width="5" height="5" rx="2.5" fill="white"/>
<rect x="84" y="142" width="5" height="5" rx="2.5" fill="white"/>
<rect x="155" y="142" width="5" height="5" rx="2.5" fill="white"/>
<rect x="226" y="142" width="5" height="5" rx="2.5" fill="white"/>
<rect x="297" y="142" width="5" height="5" rx="2.5" fill="white"/>
<rect x="368" y="142" width="5" height="5" rx="2.5" fill="white"/>
<rect x="439" y="142" width="5" height="5" rx="2.5" fill="white"/>
<rect x="510" y="142" width="5" height="5" rx="2.5" fill="white"/>
<rect x="581" y="142" width="5" height="5" rx="2.5" fill="white"/>
<rect x="652" y="142" width="5" height="5" rx="2.5" fill="white"/>
<rect x="723" y="142" width="5" height="5" rx="2.5" fill="white"/>
<rect x="794" y="142" width="5" height="5" rx="2.5" fill="white"/>
<rect x="865" y="142" width="5" height="5" rx="2.5" fill="white"/>
<rect x="936" y="142" width="5" height="5" rx="2.5" fill="white"/>
<rect x="1007" y="142" width="5" height="5" rx="2.5" fill="white"/>
<rect x="1078" y="142" width="5" height="5" rx="2.5" fill="white"/>
<rect x="1149" y="142" width="5" height="5" rx="2.5" fill="white"/>
<rect x="1220" y="142" width="5" height="5" rx="2.5" fill="white"/>
<rect x="1291" y="142" width="5" height="5" rx="2.5" fill="white"/>
<rect x="1362" y="142" width="5" height="5" rx="2.5" fill="white"/>
<rect x="1433" y="142" width="5" height="5" rx="2.5" fill="white"/>
<rect x="13" y="213" width="5" height="5" rx="2.5" fill="white"/>
<rect x="84" y="213" width="5" height="5" rx="2.5" fill="white"/>
<rect x="155" y="213" width="5" height="5" rx="2.5" fill="white"/>
<rect x="226" y="213" width="5" height="5" rx="2.5" fill="white"/>
<rect x="297" y="213" width="5" height="5" rx="2.5" fill="white"/>
<rect x="368" y="213" width="5" height="5" rx="2.5" fill="white"/>
<rect x="439" y="213" width="5" height="5" rx="2.5" fill="white"/>
<rect x="510" y="213" width="5" height="5" rx="2.5" fill="white"/>
<rect x="581" y="213" width="5" height="5" rx="2.5" fill="white"/>
<rect x="652" y="213" width="5" height="5" rx="2.5" fill="white"/>
<rect x="723" y="213" width="5" height="5" rx="2.5" fill="white"/>
<rect x="794" y="213" width="5" height="5" rx="2.5" fill="white"/>
<rect x="865" y="213" width="5" height="5" rx="2.5" fill="white"/>
<rect x="936" y="213" width="5" height="5" rx="2.5" fill="white"/>
<rect x="1007" y="213" width="5" height="5" rx="2.5" fill="white"/>
<rect x="1078" y="213" width="5" height="5" rx="2.5" fill="white"/>
<rect x="1149" y="213" width="5" height="5" rx="2.5" fill="white"/>
<rect x="1220" y="213" width="5" height="5" rx="2.5" fill="white"/>
<rect x="1291" y="213" width="5" height="5" rx="2.5" fill="white"/>
<rect x="1362" y="213" width="5" height="5" rx="2.5" fill="white"/>
<rect x="1433" y="213" width="5" height="5" rx="2.5" fill="white"/>
<rect x="13" y="284" width="5" height="5" rx="2.5" fill="white"/>
<rect x="84" y="284" width="5" height="5" rx="2.5" fill="white"/>
<rect x="155" y="284" width="5" height="5" rx="2.5" fill="white"/>
<rect x="226" y="284" width="5" height="5" rx="2.5" fill="white"/>
<rect x="297" y="284" width="5" height="5" rx="2.5" fill="white"/>
<rect x="368" y="284" width="5" height="5" rx="2.5" fill="white"/>
<rect x="439" y="284" width="5" height="5" rx="2.5" fill="white"/>
<rect x="510" y="284" width="5" height="5" rx="2.5" fill="white"/>
<rect x="581" y="284" width="5" height="5" rx="2.5" fill="white"/>
<rect x="652" y="284" width="5" height="5" rx="2.5" fill="white"/>
<rect x="723" y="284" width="5" height="5" rx="2.5" fill="white"/>
<rect x="794" y="284" width="5" height="5" rx="2.5" fill="white"/>
<rect x="865" y="284" width="5" height="5" rx="2.5" fill="white"/>
<rect x="936" y="284" width="5" height="5" rx="2.5" fill="white"/>
<rect x="1007" y="284" width="5" height="5" rx="2.5" fill="white"/>
<rect x="1078" y="284" width="5" height="5" rx="2.5" fill="white"/>
<rect x="1149" y="284" width="5" height="5" rx="2.5" fill="white"/>
<rect x="1220" y="284" width="5" height="5" rx="2.5" fill="white"/>
<rect x="1291" y="284" width="5" height="5" rx="2.5" fill="white"/>
<rect x="1362" y="284" width="5" height="5" rx="2.5" fill="white"/>
<rect x="1433" y="284" width="5" height="5" rx="2.5" fill="white"/>
<rect x="13" y="355" width="5" height="5" rx="2.5" fill="white"/>
<rect x="84" y="355" width="5" height="5" rx="2.5" fill="white"/>
<rect x="155" y="355" width="5" height="5" rx="2.5" fill="white"/>
<rect x="226" y="355" width="5" height="5" rx="2.5" fill="white"/>
<rect x="297" y="355" width="5" height="5" rx="2.5" fill="white"/>
<rect x="368" y="355" width="5" height="5" rx="2.5" fill="white"/>
<rect x="439" y="355" width="5" height="5" rx="2.5" fill="white"/>
<rect x="510" y="355" width="5" height="5" rx="2.5" fill="white"/>
<rect x="581" y="355" width="5" height="5" rx="2.5" fill="white"/>
<rect x="652" y="355" width="5" height="5" rx="2.5" fill="white"/>
<rect x="723" y="355" width="5" height="5" rx="2.5" fill="white"/>
<rect x="794" y="355" width="5" height="5" rx="2.5" fill="white"/>
<rect x="865" y="355" width="5" height="5" rx="2.5" fill="white"/>
<rect x="936" y="355" width="5" height="5" rx="2.5" fill="white"/>
<rect x="1007" y="355" width="5" height="5" rx="2.5" fill="white"/>
<rect x="1078" y="355" width="5" height="5" rx="2.5" fill="white"/>
<rect x="1149" y="355" width="5" height="5" rx="2.5" fill="white"/>
<rect x="1220" y="355" width="5" height="5" rx="2.5" fill="white"/>
<rect x="1291" y="355" width="5" height="5" rx="2.5" fill="white"/>
<rect x="1362" y="355" width="5" height="5" rx="2.5" fill="white"/>
<rect x="1433" y="355" width="5" height="5" rx="2.5" fill="white"/>
<rect x="13" y="426" width="5" height="5" rx="2.5" fill="white"/>
<rect x="84" y="426" width="5" height="5" rx="2.5" fill="white"/>
<rect x="155" y="426" width="5" height="5" rx="2.5" fill="white"/>
<rect x="226" y="426" width="5" height="5" rx="2.5" fill="white"/>
<rect x="297" y="426" width="5" height="5" rx="2.5" fill="white"/>
<rect x="368" y="426" width="5" height="5" rx="2.5" fill="white"/>
<rect x="439" y="426" width="5" height="5" rx="2.5" fill="white"/>
<rect x="510" y="426" width="5" height="5" rx="2.5" fill="white"/>
<rect x="581" y="426" width="5" height="5" rx="2.5" fill="white"/>
<rect x="652" y="426" width="5" height="5" rx="2.5" fill="white"/>
<rect x="723" y="426" width="5" height="5" rx="2.5" fill="white"/>
<rect x="794" y="426" width="5" height="5" rx="2.5" fill="white"/>
<rect x="865" y="426" width="5" height="5" rx="2.5" fill="white"/>
<rect x="936" y="426" width="5" height="5" rx="2.5" fill="white"/>
<rect x="1007" y="426" width="5" height="5" rx="2.5" fill="white"/>
<rect x="1078" y="426" width="5" height="5" rx="2.5" fill="white"/>
<rect x="1149" y="426" width="5" height="5" rx="2.5" fill="white"/>
<rect x="1220" y="426" width="5" height="5" rx="2.5" fill="white"/>
<rect x="1291" y="426" width="5" height="5" rx="2.5" fill="white"/>
<rect x="1362" y="426" width="5" height="5" rx="2.5" fill="white"/>
<rect x="1433" y="426" width="5" height="5" rx="2.5" fill="white"/>
<rect x="13" y="497" width="5" height="5" rx="2.5" fill="white"/>
<rect x="84" y="497" width="5" height="5" rx="2.5" fill="white"/>
<rect x="155" y="497" width="5" height="5" rx="2.5" fill="white"/>
<rect x="226" y="497" width="5" height="5" rx="2.5" fill="white"/>
<rect x="297" y="497" width="5" height="5" rx="2.5" fill="white"/>
<rect x="368" y="497" width="5" height="5" rx="2.5" fill="white"/>
<rect x="439" y="497" width="5" height="5" rx="2.5" fill="white"/>
<rect x="510" y="497" width="5" height="5" rx="2.5" fill="white"/>
<rect x="581" y="497" width="5" height="5" rx="2.5" fill="white"/>
<rect x="652" y="497" width="5" height="5" rx="2.5" fill="white"/>
<rect x="723" y="497" width="5" height="5" rx="2.5" fill="white"/>
<rect x="794" y="497" width="5" height="5" rx="2.5" fill="white"/>
<rect x="865" y="497" width="5" height="5" rx="2.5" fill="white"/>
<rect x="936" y="497" width="5" height="5" rx="2.5" fill="white"/>
<rect x="1007" y="497" width="5" height="5" rx="2.5" fill="white"/>
<rect x="1078" y="497" width="5" height="5" rx="2.5" fill="white"/>
<rect x="1149" y="497" width="5" height="5" rx="2.5" fill="white"/>
<rect x="1220" y="497" width="5" height="5" rx="2.5" fill="white"/>
<rect x="1291" y="497" width="5" height="5" rx="2.5" fill="white"/>
<rect x="1362" y="497" width="5" height="5" rx="2.5" fill="white"/>
<rect x="1433" y="497" width="5" height="5" rx="2.5" fill="white"/>
<rect x="13" y="568" width="5" height="5" rx="2.5" fill="white"/>
<rect x="84" y="568" width="5" height="5" rx="2.5" fill="white"/>
<rect x="155" y="568" width="5" height="5" rx="2.5" fill="white"/>
<rect x="226" y="568" width="5" height="5" rx="2.5" fill="white"/>
<rect x="297" y="568" width="5" height="5" rx="2.5" fill="white"/>
<rect x="368" y="568" width="5" height="5" rx="2.5" fill="white"/>
<rect x="439" y="568" width="5" height="5" rx="2.5" fill="white"/>
<rect x="510" y="568" width="5" height="5" rx="2.5" fill="white"/>
<rect x="581" y="568" width="5" height="5" rx="2.5" fill="white"/>
<rect x="652" y="568" width="5" height="5" rx="2.5" fill="white"/>
<rect x="723" y="568" width="5" height="5" rx="2.5" fill="white"/>
<rect x="794" y="568" width="5" height="5" rx="2.5" fill="white"/>
<rect x="865" y="568" width="5" height="5" rx="2.5" fill="white"/>
<rect x="936" y="568" width="5" height="5" rx="2.5" fill="white"/>
<rect x="1007" y="568" width="5" height="5" rx="2.5" fill="white"/>
<rect x="1078" y="568" width="5" height="5" rx="2.5" fill="white"/>
<rect x="1149" y="568" width="5" height="5" rx="2.5" fill="white"/>
<rect x="1220" y="568" width="5" height="5" rx="2.5" fill="white"/>
<rect x="1291" y="568" width="5" height="5" rx="2.5" fill="white"/>
<rect x="1362" y="568" width="5" height="5" rx="2.5" fill="white"/>
<rect x="1433" y="568" width="5" height="5" rx="2.5" fill="white"/>
<rect x="13" y="639" width="5" height="5" rx="2.5" fill="white"/>
<rect x="84" y="639" width="5" height="5" rx="2.5" fill="white"/>
<rect x="155" y="639" width="5" height="5" rx="2.5" fill="white"/>
<rect x="226" y="639" width="5" height="5" rx="2.5" fill="white"/>
<rect x="297" y="639" width="5" height="5" rx="2.5" fill="white"/>
<rect x="368" y="639" width="5" height="5" rx="2.5" fill="white"/>
<rect x="439" y="639" width="5" height="5" rx="2.5" fill="white"/>
<rect x="510" y="639" width="5" height="5" rx="2.5" fill="white"/>
<rect x="581" y="639" width="5" height="5" rx="2.5" fill="white"/>
<rect x="652" y="639" width="5" height="5" rx="2.5" fill="white"/>
<rect x="723" y="639" width="5" height="5" rx="2.5" fill="white"/>
<rect x="794" y="639" width="5" height="5" rx="2.5" fill="white"/>
<rect x="865" y="639" width="5" height="5" rx="2.5" fill="white"/>
<rect x="936" y="639" width="5" height="5" rx="2.5" fill="white"/>
<rect x="1007" y="639" width="5" height="5" rx="2.5" fill="white"/>
<rect x="1078" y="639" width="5" height="5" rx="2.5" fill="white"/>
<rect x="1149" y="639" width="5" height="5" rx="2.5" fill="white"/>
<rect x="1220" y="639" width="5" height="5" rx="2.5" fill="white"/>
<rect x="1291" y="639" width="5" height="5" rx="2.5" fill="white"/>
<rect x="1362" y="639" width="5" height="5" rx="2.5" fill="white"/>
<rect x="1433" y="639" width="5" height="5" rx="2.5" fill="white"/>
<rect x="13" y="710" width="5" height="5" rx="2.5" fill="white"/>
<rect x="84" y="710" width="5" height="5" rx="2.5" fill="white"/>
<rect x="155" y="710" width="5" height="5" rx="2.5" fill="white"/>
<rect x="226" y="710" width="5" height="5" rx="2.5" fill="white"/>
<rect x="297" y="710" width="5" height="5" rx="2.5" fill="white"/>
<rect x="368" y="710" width="5" height="5" rx="2.5" fill="white"/>
<rect x="439" y="710" width="5" height="5" rx="2.5" fill="white"/>
<rect x="510" y="710" width="5" height="5" rx="2.5" fill="white"/>
<rect x="581" y="710" width="5" height="5" rx="2.5" fill="white"/>
<rect x="652" y="710" width="5" height="5" rx="2.5" fill="white"/>
<rect x="723" y="710" width="5" height="5" rx="2.5" fill="white"/>
<rect x="794" y="710" width="5" height="5" rx="2.5" fill="white"/>
<rect x="865" y="710" width="5" height="5" rx="2.5" fill="white"/>
<rect x="936" y="710" width="5" height="5" rx="2.5" fill="white"/>
<rect x="1007" y="710" width="5" height="5" rx="2.5" fill="white"/>
<rect x="1078" y="710" width="5" height="5" rx="2.5" fill="white"/>
<rect x="1149" y="710" width="5" height="5" rx="2.5" fill="white"/>
<rect x="1220" y="710" width="5" height="5" rx="2.5" fill="white"/>
<rect x="1291" y="710" width="5" height="5" rx="2.5" fill="white"/>
<rect x="1362" y="710" width="5" height="5" rx="2.5" fill="white"/>
<rect x="1433" y="710" width="5" height="5" rx="2.5" fill="white"/>
<rect x="13" y="781" width="5" height="5" rx="2.5" fill="white"/>
<rect x="84" y="781" width="5" height="5" rx="2.5" fill="white"/>
<rect x="155" y="781" width="5" height="5" rx="2.5" fill="white"/>
<rect x="226" y="781" width="5" height="5" rx="2.5" fill="white"/>
<rect x="297" y="781" width="5" height="5" rx="2.5" fill="white"/>
<rect x="368" y="781" width="5" height="5" rx="2.5" fill="white"/>
<rect x="439" y="781" width="5" height="5" rx="2.5" fill="white"/>
<rect x="510" y="781" width="5" height="5" rx="2.5" fill="white"/>
<rect x="581" y="781" width="5" height="5" rx="2.5" fill="white"/>
<rect x="652" y="781" width="5" height="5" rx="2.5" fill="white"/>
<rect x="723" y="781" width="5" height="5" rx="2.5" fill="white"/>
<rect x="794" y="781" width="5" height="5" rx="2.5" fill="white"/>
<rect x="865" y="781" width="5" height="5" rx="2.5" fill="white"/>
<rect x="936" y="781" width="5" height="5" rx="2.5" fill="white"/>
<rect x="1007" y="781" width="5" height="5" rx="2.5" fill="white"/>
<rect x="1078" y="781" width="5" height="5" rx="2.5" fill="white"/>
<rect x="1149" y="781" width="5" height="5" rx="2.5" fill="white"/>
<rect x="1220" y="781" width="5" height="5" rx="2.5" fill="white"/>
<rect x="1291" y="781" width="5" height="5" rx="2.5" fill="white"/>
<rect x="1362" y="781" width="5" height="5" rx="2.5" fill="white"/>
<rect x="1433" y="781" width="5" height="5" rx="2.5" fill="white"/>
<rect x="13" y="852" width="5" height="5" rx="2.5" fill="white"/>
<rect x="84" y="852" width="5" height="5" rx="2.5" fill="white"/>
<rect x="155" y="852" width="5" height="5" rx="2.5" fill="white"/>
<rect x="226" y="852" width="5" height="5" rx="2.5" fill="white"/>
<rect x="297" y="852" width="5" height="5" rx="2.5" fill="white"/>
<rect x="368" y="852" width="5" height="5" rx="2.5" fill="white"/>
<rect x="439" y="852" width="5" height="5" rx="2.5" fill="white"/>
<rect x="510" y="852" width="5" height="5" rx="2.5" fill="white"/>
<rect x="581" y="852" width="5" height="5" rx="2.5" fill="white"/>
<rect x="652" y="852" width="5" height="5" rx="2.5" fill="white"/>
<rect x="723" y="852" width="5" height="5" rx="2.5" fill="white"/>
<rect x="794" y="852" width="5" height="5" rx="2.5" fill="white"/>
<rect x="865" y="852" width="5" height="5" rx="2.5" fill="white"/>
<rect x="936" y="852" width="5" height="5" rx="2.5" fill="white"/>
<rect x="1007" y="852" width="5" height="5" rx="2.5" fill="white"/>
<rect x="1078" y="852" width="5" height="5" rx="2.5" fill="white"/>
<rect x="1149" y="852" width="5" height="5" rx="2.5" fill="white"/>
<rect x="1220" y="852" width="5" height="5" rx="2.5" fill="white"/>
<rect x="1291" y="852" width="5" height="5" rx="2.5" fill="white"/>
<rect x="1362" y="852" width="5" height="5" rx="2.5" fill="white"/>
<rect x="1433" y="852" width="5" height="5" rx="2.5" fill="white"/>
<rect x="13" y="923" width="5" height="5" rx="2.5" fill="white"/>
<rect x="84" y="923" width="5" height="5" rx="2.5" fill="white"/>
<rect x="155" y="923" width="5" height="5" rx="2.5" fill="white"/>
<rect x="226" y="923" width="5" height="5" rx="2.5" fill="white"/>
<rect x="297" y="923" width="5" height="5" rx="2.5" fill="white"/>
<rect x="368" y="923" width="5" height="5" rx="2.5" fill="white"/>
<rect x="439" y="923" width="5" height="5" rx="2.5" fill="white"/>
<rect x="510" y="923" width="5" height="5" rx="2.5" fill="white"/>
<rect x="581" y="923" width="5" height="5" rx="2.5" fill="white"/>
<rect x="652" y="923" width="5" height="5" rx="2.5" fill="white"/>
<rect x="723" y="923" width="5" height="5" rx="2.5" fill="white"/>
<rect x="794" y="923" width="5" height="5" rx="2.5" fill="white"/>
<rect x="865" y="923" width="5" height="5" rx="2.5" fill="white"/>
<rect x="936" y="923" width="5" height="5" rx="2.5" fill="white"/>
<rect x="1007" y="923" width="5" height="5" rx="2.5" fill="white"/>
<rect x="1078" y="923" width="5" height="5" rx="2.5" fill="white"/>
<rect x="1149" y="923" width="5" height="5" rx="2.5" fill="white"/>
<rect x="1220" y="923" width="5" height="5" rx="2.5" fill="white"/>
<rect x="1291" y="923" width="5" height="5" rx="2.5" fill="white"/>
<rect x="1362" y="923" width="5" height="5" rx="2.5" fill="white"/>
<rect x="1433" y="923" width="5" height="5" rx="2.5" fill="white"/>
<rect x="13" y="994" width="5" height="5" rx="2.5" fill="white"/>
<rect x="84" y="994" width="5" height="5" rx="2.5" fill="white"/>
<rect x="155" y="994" width="5" height="5" rx="2.5" fill="white"/>
<rect x="226" y="994" width="5" height="5" rx="2.5" fill="white"/>
<rect x="297" y="994" width="5" height="5" rx="2.5" fill="white"/>
<rect x="368" y="994" width="5" height="5" rx="2.5" fill="white"/>
<rect x="439" y="994" width="5" height="5" rx="2.5" fill="white"/>
<rect x="510" y="994" width="5" height="5" rx="2.5" fill="white"/>
<rect x="581" y="994" width="5" height="5" rx="2.5" fill="white"/>
<rect x="652" y="994" width="5" height="5" rx="2.5" fill="white"/>
<rect x="723" y="994" width="5" height="5" rx="2.5" fill="white"/>
<rect x="794" y="994" width="5" height="5" rx="2.5" fill="white"/>
<rect x="865" y="994" width="5" height="5" rx="2.5" fill="white"/>
<rect x="936" y="994" width="5" height="5" rx="2.5" fill="white"/>
<rect x="1007" y="994" width="5" height="5" rx="2.5" fill="white"/>
<rect x="1078" y="994" width="5" height="5" rx="2.5" fill="white"/>
<rect x="1149" y="994" width="5" height="5" rx="2.5" fill="white"/>
<rect x="1220" y="994" width="5" height="5" rx="2.5" fill="white"/>
<rect x="1291" y="994" width="5" height="5" rx="2.5" fill="white"/>
<rect x="1362" y="994" width="5" height="5" rx="2.5" fill="white"/>
<rect x="1433" y="994" width="5" height="5" rx="2.5" fill="white"/>
<rect x="13" y="1065" width="5" height="5" rx="2.5" fill="white"/>
<rect x="84" y="1065" width="5" height="5" rx="2.5" fill="white"/>
<rect x="155" y="1065" width="5" height="5" rx="2.5" fill="white"/>
<rect x="226" y="1065" width="5" height="5" rx="2.5" fill="white"/>
<rect x="297" y="1065" width="5" height="5" rx="2.5" fill="white"/>
<rect x="368" y="1065" width="5" height="5" rx="2.5" fill="white"/>
<rect x="439" y="1065" width="5" height="5" rx="2.5" fill="white"/>
<rect x="510" y="1065" width="5" height="5" rx="2.5" fill="white"/>
<rect x="581" y="1065" width="5" height="5" rx="2.5" fill="white"/>
<rect x="652" y="1065" width="5" height="5" rx="2.5" fill="white"/>
<rect x="723" y="1065" width="5" height="5" rx="2.5" fill="white"/>
<rect x="794" y="1065" width="5" height="5" rx="2.5" fill="white"/>
<rect x="865" y="1065" width="5" height="5" rx="2.5" fill="white"/>
<rect x="936" y="1065" width="5" height="5" rx="2.5" fill="white"/>
<rect x="1007" y="1065" width="5" height="5" rx="2.5" fill="white"/>
<rect x="1078" y="1065" width="5" height="5" rx="2.5" fill="white"/>
<rect x="1149" y="1065" width="5" height="5" rx="2.5" fill="white"/>
<rect x="1220" y="1065" width="5" height="5" rx="2.5" fill="white"/>
<rect x="1291" y="1065" width="5" height="5" rx="2.5" fill="white"/>
<rect x="1362" y="1065" width="5" height="5" rx="2.5" fill="white"/>
<rect x="1433" y="1065" width="5" height="5" rx="2.5" fill="white"/>
<rect x="13" y="1136" width="5" height="5" rx="2.5" fill="white"/>
<rect x="84" y="1136" width="5" height="5" rx="2.5" fill="white"/>
<rect x="155" y="1136" width="5" height="5" rx="2.5" fill="white"/>
<rect x="226" y="1136" width="5" height="5" rx="2.5" fill="white"/>
<rect x="297" y="1136" width="5" height="5" rx="2.5" fill="white"/>
<rect x="368" y="1136" width="5" height="5" rx="2.5" fill="white"/>
<rect x="439" y="1136" width="5" height="5" rx="2.5" fill="white"/>
<rect x="510" y="1136" width="5" height="5" rx="2.5" fill="white"/>
<rect x="581" y="1136" width="5" height="5" rx="2.5" fill="white"/>
<rect x="652" y="1136" width="5" height="5" rx="2.5" fill="white"/>
<rect x="723" y="1136" width="5" height="5" rx="2.5" fill="white"/>
<rect x="794" y="1136" width="5" height="5" rx="2.5" fill="white"/>
<rect x="865" y="1136" width="5" height="5" rx="2.5" fill="white"/>
<rect x="936" y="1136" width="5" height="5" rx="2.5" fill="white"/>
<rect x="1007" y="1136" width="5" height="5" rx="2.5" fill="white"/>
<rect x="1078" y="1136" width="5" height="5" rx="2.5" fill="white"/>
<rect x="1149" y="1136" width="5" height="5" rx="2.5" fill="white"/>
<rect x="1220" y="1136" width="5" height="5" rx="2.5" fill="white"/>
<rect x="1291" y="1136" width="5" height="5" rx="2.5" fill="white"/>
<rect x="1362" y="1136" width="5" height="5" rx="2.5" fill="white"/>
<rect x="1433" y="1136" width="5" height="5" rx="2.5" fill="white"/>
<rect x="13" y="1207" width="5" height="5" rx="2.5" fill="white"/>
<rect x="84" y="1207" width="5" height="5" rx="2.5" fill="white"/>
<rect x="155" y="1207" width="5" height="5" rx="2.5" fill="white"/>
<rect x="226" y="1207" width="5" height="5" rx="2.5" fill="white"/>
<rect x="297" y="1207" width="5" height="5" rx="2.5" fill="white"/>
<rect x="368" y="1207" width="5" height="5" rx="2.5" fill="white"/>
<rect x="439" y="1207" width="5" height="5" rx="2.5" fill="white"/>
<rect x="510" y="1207" width="5" height="5" rx="2.5" fill="white"/>
<rect x="581" y="1207" width="5" height="5" rx="2.5" fill="white"/>
<rect x="652" y="1207" width="5" height="5" rx="2.5" fill="white"/>
<rect x="723" y="1207" width="5" height="5" rx="2.5" fill="white"/>
<rect x="794" y="1207" width="5" height="5" rx="2.5" fill="white"/>
<rect x="865" y="1207" width="5" height="5" rx="2.5" fill="white"/>
<rect x="936" y="1207" width="5" height="5" rx="2.5" fill="white"/>
<rect x="1007" y="1207" width="5" height="5" rx="2.5" fill="white"/>
<rect x="1078" y="1207" width="5" height="5" rx="2.5" fill="white"/>
<rect x="1149" y="1207" width="5" height="5" rx="2.5" fill="white"/>
<rect x="1220" y="1207" width="5" height="5" rx="2.5" fill="white"/>
<rect x="1291" y="1207" width="5" height="5" rx="2.5" fill="white"/>
<rect x="1362" y="1207" width="5" height="5" rx="2.5" fill="white"/>
<rect x="1433" y="1207" width="5" height="5" rx="2.5" fill="white"/>
<rect x="13" y="1278" width="5" height="5" rx="2.5" fill="white"/>
<rect x="84" y="1278" width="5" height="5" rx="2.5" fill="white"/>
<rect x="155" y="1278" width="5" height="5" rx="2.5" fill="white"/>
<rect x="226" y="1278" width="5" height="5" rx="2.5" fill="white"/>
<rect x="297" y="1278" width="5" height="5" rx="2.5" fill="white"/>
<rect x="368" y="1278" width="5" height="5" rx="2.5" fill="white"/>
<rect x="439" y="1278" width="5" height="5" rx="2.5" fill="white"/>
<rect x="510" y="1278" width="5" height="5" rx="2.5" fill="white"/>
<rect x="581" y="1278" width="5" height="5" rx="2.5" fill="white"/>
<rect x="652" y="1278" width="5" height="5" rx="2.5" fill="white"/>
<rect x="723" y="1278" width="5" height="5" rx="2.5" fill="white"/>
<rect x="794" y="1278" width="5" height="5" rx="2.5" fill="white"/>
<rect x="865" y="1278" width="5" height="5" rx="2.5" fill="white"/>
<rect x="936" y="1278" width="5" height="5" rx="2.5" fill="white"/>
<rect x="1007" y="1278" width="5" height="5" rx="2.5" fill="white"/>
<rect x="1078" y="1278" width="5" height="5" rx="2.5" fill="white"/>
<rect x="1149" y="1278" width="5" height="5" rx="2.5" fill="white"/>
<rect x="1220" y="1278" width="5" height="5" rx="2.5" fill="white"/>
<rect x="1291" y="1278" width="5" height="5" rx="2.5" fill="white"/>
<rect x="1362" y="1278" width="5" height="5" rx="2.5" fill="white"/>
<rect x="1433" y="1278" width="5" height="5" rx="2.5" fill="white"/>
<rect x="13" y="1349" width="5" height="5" rx="2.5" fill="white"/>
<rect x="84" y="1349" width="5" height="5" rx="2.5" fill="white"/>
<rect x="155" y="1349" width="5" height="5" rx="2.5" fill="white"/>
<rect x="226" y="1349" width="5" height="5" rx="2.5" fill="white"/>
<rect x="297" y="1349" width="5" height="5" rx="2.5" fill="white"/>
<rect x="368" y="1349" width="5" height="5" rx="2.5" fill="white"/>
<rect x="439" y="1349" width="5" height="5" rx="2.5" fill="white"/>
<rect x="510" y="1349" width="5" height="5" rx="2.5" fill="white"/>
<rect x="581" y="1349" width="5" height="5" rx="2.5" fill="white"/>
<rect x="652" y="1349" width="5" height="5" rx="2.5" fill="white"/>
<rect x="723" y="1349" width="5" height="5" rx="2.5" fill="white"/>
<rect x="794" y="1349" width="5" height="5" rx="2.5" fill="white"/>
<rect x="865" y="1349" width="5" height="5" rx="2.5" fill="white"/>
<rect x="936" y="1349" width="5" height="5" rx="2.5" fill="white"/>
<rect x="1007" y="1349" width="5" height="5" rx="2.5" fill="white"/>
<rect x="1078" y="1349" width="5" height="5" rx="2.5" fill="white"/>
<rect x="1149" y="1349" width="5" height="5" rx="2.5" fill="white"/>
<rect x="1220" y="1349" width="5" height="5" rx="2.5" fill="white"/>
<rect x="1291" y="1349" width="5" height="5" rx="2.5" fill="white"/>
<rect x="1362" y="1349" width="5" height="5" rx="2.5" fill="white"/>
<rect x="1433" y="1349" width="5" height="5" rx="2.5" fill="white"/>
<rect x="13" y="1420" width="5" height="5" rx="2.5" fill="white"/>
<rect x="84" y="1420" width="5" height="5" rx="2.5" fill="white"/>
<rect x="155" y="1420" width="5" height="5" rx="2.5" fill="white"/>
<rect x="226" y="1420" width="5" height="5" rx="2.5" fill="white"/>
<rect x="297" y="1420" width="5" height="5" rx="2.5" fill="white"/>
<rect x="368" y="1420" width="5" height="5" rx="2.5" fill="white"/>
<rect x="439" y="1420" width="5" height="5" rx="2.5" fill="white"/>
<rect x="510" y="1420" width="5" height="5" rx="2.5" fill="white"/>
<rect x="581" y="1420" width="5" height="5" rx="2.5" fill="white"/>
<rect x="652" y="1420" width="5" height="5" rx="2.5" fill="white"/>
<rect x="723" y="1420" width="5" height="5" rx="2.5" fill="white"/>
<rect x="794" y="1420" width="5" height="5" rx="2.5" fill="white"/>
<rect x="865" y="1420" width="5" height="5" rx="2.5" fill="white"/>
<rect x="936" y="1420" width="5" height="5" rx="2.5" fill="white"/>
<rect x="1007" y="1420" width="5" height="5" rx="2.5" fill="white"/>
<rect x="1078" y="1420" width="5" height="5" rx="2.5" fill="white"/>
<rect x="1149" y="1420" width="5" height="5" rx="2.5" fill="white"/>
<rect x="1220" y="1420" width="5" height="5" rx="2.5" fill="white"/>
<rect x="1291" y="1420" width="5" height="5" rx="2.5" fill="white"/>
<rect x="1362" y="1420" width="5" height="5" rx="2.5" fill="white"/>
<rect x="1433" y="1420" width="5" height="5" rx="2.5" fill="white"/>
<rect x="13" y="1491" width="5" height="5" rx="2.5" fill="white"/>
<rect x="84" y="1491" width="5" height="5" rx="2.5" fill="white"/>
<rect x="155" y="1491" width="5" height="5" rx="2.5" fill="white"/>
<rect x="226" y="1491" width="5" height="5" rx="2.5" fill="white"/>
<rect x="297" y="1491" width="5" height="5" rx="2.5" fill="white"/>
<rect x="368" y="1491" width="5" height="5" rx="2.5" fill="white"/>
<rect x="439" y="1491" width="5" height="5" rx="2.5" fill="white"/>
<rect x="510" y="1491" width="5" height="5" rx="2.5" fill="white"/>
<rect x="581" y="1491" width="5" height="5" rx="2.5" fill="white"/>
<rect x="652" y="1491" width="5" height="5" rx="2.5" fill="white"/>
<rect x="723" y="1491" width="5" height="5" rx="2.5" fill="white"/>
<rect x="794" y="1491" width="5" height="5" rx="2.5" fill="white"/>
<rect x="865" y="1491" width="5" height="5" rx="2.5" fill="white"/>
<rect x="936" y="1491" width="5" height="5" rx="2.5" fill="white"/>
<rect x="1007" y="1491" width="5" height="5" rx="2.5" fill="white"/>
<rect x="1078" y="1491" width="5" height="5" rx="2.5" fill="white"/>
<rect x="1149" y="1491" width="5" height="5" rx="2.5" fill="white"/>
<rect x="1220" y="1491" width="5" height="5" rx="2.5" fill="white"/>
<rect x="1291" y="1491" width="5" height="5" rx="2.5" fill="white"/>
<rect x="1362" y="1491" width="5" height="5" rx="2.5" fill="white"/>
<rect x="1433" y="1491" width="5" height="5" rx="2.5" fill="white"/>
<rect x="13" y="1562" width="5" height="5" rx="2.5" fill="white"/>
<rect x="84" y="1562" width="5" height="5" rx="2.5" fill="white"/>
<rect x="155" y="1562" width="5" height="5" rx="2.5" fill="white"/>
<rect x="226" y="1562" width="5" height="5" rx="2.5" fill="white"/>
<rect x="297" y="1562" width="5" height="5" rx="2.5" fill="white"/>
<rect x="368" y="1562" width="5" height="5" rx="2.5" fill="white"/>
<rect x="439" y="1562" width="5" height="5" rx="2.5" fill="white"/>
<rect x="510" y="1562" width="5" height="5" rx="2.5" fill="white"/>
<rect x="581" y="1562" width="5" height="5" rx="2.5" fill="white"/>
<rect x="652" y="1562" width="5" height="5" rx="2.5" fill="white"/>
<rect x="723" y="1562" width="5" height="5" rx="2.5" fill="white"/>
<rect x="794" y="1562" width="5" height="5" rx="2.5" fill="white"/>
<rect x="865" y="1562" width="5" height="5" rx="2.5" fill="white"/>
<rect x="936" y="1562" width="5" height="5" rx="2.5" fill="white"/>
<rect x="1007" y="1562" width="5" height="5" rx="2.5" fill="white"/>
<rect x="1078" y="1562" width="5" height="5" rx="2.5" fill="white"/>
<rect x="1149" y="1562" width="5" height="5" rx="2.5" fill="white"/>
<rect x="1220" y="1562" width="5" height="5" rx="2.5" fill="white"/>
<rect x="1291" y="1562" width="5" height="5" rx="2.5" fill="white"/>
<rect x="1362" y="1562" width="5" height="5" rx="2.5" fill="white"/>
<rect x="1433" y="1562" width="5" height="5" rx="2.5" fill="white"/>
<rect x="13" y="1633" width="5" height="5" rx="2.5" fill="white"/>
<rect x="84" y="1633" width="5" height="5" rx="2.5" fill="white"/>
<rect x="155" y="1633" width="5" height="5" rx="2.5" fill="white"/>
<rect x="226" y="1633" width="5" height="5" rx="2.5" fill="white"/>
<rect x="297" y="1633" width="5" height="5" rx="2.5" fill="white"/>
<rect x="368" y="1633" width="5" height="5" rx="2.5" fill="white"/>
<rect x="439" y="1633" width="5" height="5" rx="2.5" fill="white"/>
<rect x="510" y="1633" width="5" height="5" rx="2.5" fill="white"/>
<rect x="581" y="1633" width="5" height="5" rx="2.5" fill="white"/>
<rect x="652" y="1633" width="5" height="5" rx="2.5" fill="white"/>
<rect x="723" y="1633" width="5" height="5" rx="2.5" fill="white"/>
<rect x="794" y="1633" width="5" height="5" rx="2.5" fill="white"/>
<rect x="865" y="1633" width="5" height="5" rx="2.5" fill="white"/>
<rect x="936" y="1633" width="5" height="5" rx="2.5" fill="white"/>
<rect x="1007" y="1633" width="5" height="5" rx="2.5" fill="white"/>
<rect x="1078" y="1633" width="5" height="5" rx="2.5" fill="white"/>
<rect x="1149" y="1633" width="5" height="5" rx="2.5" fill="white"/>
<rect x="1220" y="1633" width="5" height="5" rx="2.5" fill="white"/>
<rect x="1291" y="1633" width="5" height="5" rx="2.5" fill="white"/>
<rect x="1362" y="1633" width="5" height="5" rx="2.5" fill="white"/>
<rect x="1433" y="1633" width="5" height="5" rx="2.5" fill="white"/>
</g>
</svg>
