<svg width="161" height="75" viewBox="0 0 161 75" fill="none" xmlns="http://www.w3.org/2000/svg">
<path d="M6 35H159V68.4177L6 75V35Z" fill="black" fill-opacity="0.3"/>
<rect x="0.828125" y="16" width="160" height="50" rx="16" fill="white"/>
<path d="M26.0601 48V36.08H27.9481V48H26.0601ZM30.2435 48V39.344H31.9715V41.04L31.7635 40.816C31.9768 40.272 32.3182 39.8613 32.7875 39.584C33.2568 39.296 33.8008 39.152 34.4195 39.152C35.0595 39.152 35.6248 39.2907 36.1155 39.568C36.6062 39.8453 36.9902 40.2293 37.2675 40.72C37.5448 41.2107 37.6835 41.776 37.6835 42.416V48H35.8915V42.896C35.8915 42.4587 35.8115 42.0907 35.6515 41.792C35.4915 41.4827 35.2622 41.248 34.9635 41.088C34.6755 40.9173 34.3448 40.832 33.9715 40.832C33.5982 40.832 33.2622 40.9173 32.9635 41.088C32.6755 41.248 32.4515 41.4827 32.2915 41.792C32.1315 42.1013 32.0515 42.4693 32.0515 42.896V48H30.2435ZM39.6185 48V39.344H41.4265V48H39.6185ZM39.6185 38.16V36.08H41.4265V38.16H39.6185ZM47.6524 48.192C46.7884 48.192 46.0204 47.9947 45.3484 47.6C44.687 47.1947 44.159 46.6507 43.7644 45.968C43.3804 45.2853 43.1884 44.512 43.1884 43.648C43.1884 42.7947 43.3804 42.0267 43.7644 41.344C44.1484 40.6613 44.6764 40.128 45.3484 39.744C46.0204 39.3493 46.7884 39.152 47.6524 39.152C48.239 39.152 48.7884 39.2587 49.3004 39.472C49.8124 39.6747 50.255 39.9573 50.6284 40.32C51.0124 40.6827 51.295 41.104 51.4764 41.584L49.8924 42.32C49.711 41.872 49.4177 41.5147 49.0124 41.248C48.6177 40.9707 48.1644 40.832 47.6524 40.832C47.1617 40.832 46.719 40.9547 46.3244 41.2C45.9404 41.4347 45.6364 41.7707 45.4124 42.208C45.1884 42.6347 45.0764 43.12 45.0764 43.664C45.0764 44.208 45.1884 44.6987 45.4124 45.136C45.6364 45.5627 45.9404 45.8987 46.3244 46.144C46.719 46.3893 47.1617 46.512 47.6524 46.512C48.175 46.512 48.6284 46.3787 49.0124 46.112C49.407 45.8347 49.7004 45.4667 49.8924 45.008L51.4764 45.76C51.3057 46.2187 51.0284 46.6347 50.6444 47.008C50.271 47.3707 49.8284 47.6587 49.3164 47.872C48.8044 48.0853 48.2497 48.192 47.6524 48.192ZM53.2435 48V39.344H55.0515V48H53.2435ZM53.2435 38.16V36.08H55.0515V38.16H53.2435ZM59.7574 48.192C59.1707 48.192 58.6534 48.0907 58.2054 47.888C57.768 47.6747 57.4267 47.3867 57.1814 47.024C56.936 46.6507 56.8134 46.2133 56.8134 45.712C56.8134 45.2427 56.9147 44.8213 57.1174 44.448C57.3307 44.0747 57.656 43.76 58.0934 43.504C58.5307 43.248 59.08 43.0667 59.7414 42.96L62.7494 42.464V43.888L60.0934 44.352C59.6134 44.4373 59.2614 44.592 59.0374 44.816C58.8134 45.0293 58.7014 45.3067 58.7014 45.648C58.7014 45.9787 58.824 46.2507 59.0694 46.464C59.3254 46.6667 59.6507 46.768 60.0454 46.768C60.536 46.768 60.9627 46.6613 61.3254 46.448C61.6987 46.2347 61.9867 45.952 62.1894 45.6C62.392 45.2373 62.4934 44.8373 62.4934 44.4V42.176C62.4934 41.7493 62.3334 41.4027 62.0134 41.136C61.704 40.8587 61.288 40.72 60.7654 40.72C60.2854 40.72 59.864 40.848 59.5014 41.104C59.1494 41.3493 58.888 41.6693 58.7174 42.064L57.2134 41.312C57.3734 40.8853 57.6347 40.512 57.9974 40.192C58.36 39.8613 58.7814 39.6053 59.2614 39.424C59.752 39.2427 60.2694 39.152 60.8134 39.152C61.496 39.152 62.0987 39.28 62.6214 39.536C63.1547 39.792 63.5654 40.1493 63.8534 40.608C64.152 41.056 64.3014 41.5787 64.3014 42.176V48H62.5734V46.432L62.9414 46.48C62.7387 46.832 62.4774 47.136 62.1574 47.392C61.848 47.648 61.4907 47.8453 61.0854 47.984C60.6907 48.1227 60.248 48.192 59.7574 48.192ZM66.4154 48V39.344H68.1434V41.088L67.9834 40.832C68.1754 40.2667 68.4847 39.8613 68.9114 39.616C69.338 39.36 69.85 39.232 70.4474 39.232H70.9754V40.88H70.2234C69.626 40.88 69.1407 41.0667 68.7674 41.44C68.4047 41.8027 68.2234 42.3253 68.2234 43.008V48H66.4154ZM75.1851 48V36.08H79.5211C80.3211 36.08 81.0251 36.2293 81.6331 36.528C82.2518 36.816 82.7318 37.2427 83.0731 37.808C83.4145 38.3627 83.5851 39.0293 83.5851 39.808C83.5851 40.576 83.4091 41.2373 83.0571 41.792C82.7158 42.3467 82.2411 42.7733 81.6331 43.072C81.0251 43.3707 80.3211 43.52 79.5211 43.52H77.0731V48H75.1851ZM77.0731 41.84H79.5691C79.9958 41.84 80.3691 41.7547 80.6891 41.584C81.0091 41.4133 81.2598 41.1787 81.4411 40.88C81.6225 40.5707 81.7131 40.208 81.7131 39.792C81.7131 39.376 81.6225 39.0187 81.4411 38.72C81.2598 38.4107 81.0091 38.176 80.6891 38.016C80.3691 37.8453 79.9958 37.76 79.5691 37.76H77.0731V41.84ZM85.3529 48V39.344H87.0809V41.088L86.9209 40.832C87.1129 40.2667 87.4222 39.8613 87.8489 39.616C88.2755 39.36 88.7875 39.232 89.3849 39.232H89.9129V40.88H89.1609C88.5635 40.88 88.0782 41.0667 87.7049 41.44C87.3422 41.8027 87.1609 42.3253 87.1609 43.008V48H85.3529ZM95.3258 48.192C94.4938 48.192 93.7311 47.9947 93.0378 47.6C92.3551 47.2053 91.8111 46.6667 91.4058 45.984C91.0004 45.3013 90.7978 44.528 90.7978 43.664C90.7978 42.7893 91.0004 42.016 91.4058 41.344C91.8111 40.6613 92.3551 40.128 93.0378 39.744C93.7204 39.3493 94.4831 39.152 95.3258 39.152C96.1791 39.152 96.9418 39.3493 97.6138 39.744C98.2964 40.128 98.8351 40.6613 99.2298 41.344C99.6351 42.016 99.8378 42.7893 99.8378 43.664C99.8378 44.5387 99.6351 45.3173 99.2298 46C98.8244 46.6827 98.2804 47.2213 97.5978 47.616C96.9151 48 96.1578 48.192 95.3258 48.192ZM95.3258 46.512C95.8378 46.512 96.2911 46.3893 96.6858 46.144C97.0804 45.8987 97.3898 45.5627 97.6138 45.136C97.8484 44.6987 97.9658 44.208 97.9658 43.664C97.9658 43.12 97.8484 42.6347 97.6138 42.208C97.3898 41.7813 97.0804 41.4453 96.6858 41.2C96.2911 40.9547 95.8378 40.832 95.3258 40.832C94.8244 40.832 94.3711 40.9547 93.9658 41.2C93.5711 41.4453 93.2564 41.7813 93.0218 42.208C92.7978 42.6347 92.6858 43.12 92.6858 43.664C92.6858 44.208 92.7978 44.6987 93.0218 45.136C93.2564 45.5627 93.5711 45.8987 93.9658 46.144C94.3711 46.3893 94.8244 46.512 95.3258 46.512ZM100.275 51.536C100.158 51.536 100.03 51.5253 99.8909 51.504C99.7415 51.4933 99.6189 51.4773 99.5229 51.456V49.888C99.7255 49.92 99.9282 49.936 100.131 49.936C100.579 49.936 100.936 49.8187 101.203 49.584C101.47 49.36 101.603 49.0187 101.603 48.56V39.344H103.411V48.56C103.411 49.1893 103.278 49.728 103.011 50.176C102.744 50.624 102.376 50.96 101.907 51.184C101.438 51.4187 100.894 51.536 100.275 51.536ZM101.603 38.16V36.08H103.411V38.16H101.603ZM109.589 48.192C108.725 48.192 107.957 47.9947 107.285 47.6C106.623 47.1947 106.106 46.6507 105.733 45.968C105.359 45.2747 105.173 44.5013 105.173 43.648C105.173 42.7733 105.359 42 105.733 41.328C106.117 40.656 106.629 40.128 107.269 39.744C107.909 39.3493 108.634 39.152 109.445 39.152C110.095 39.152 110.677 39.264 111.189 39.488C111.701 39.712 112.133 40.0213 112.485 40.416C112.837 40.8 113.103 41.2427 113.285 41.744C113.477 42.2453 113.573 42.7787 113.573 43.344C113.573 43.4827 113.567 43.6267 113.557 43.776C113.546 43.9253 113.525 44.064 113.493 44.192H106.597V42.752H112.469L111.605 43.408C111.711 42.8853 111.674 42.4213 111.493 42.016C111.322 41.6 111.055 41.2747 110.693 41.04C110.341 40.7947 109.925 40.672 109.445 40.672C108.965 40.672 108.538 40.7947 108.165 41.04C107.791 41.2747 107.503 41.616 107.301 42.064C107.098 42.5013 107.018 43.0347 107.061 43.664C107.007 44.2507 107.087 44.7627 107.301 45.2C107.525 45.6373 107.834 45.9787 108.229 46.224C108.634 46.4693 109.093 46.592 109.605 46.592C110.127 46.592 110.57 46.4747 110.933 46.24C111.306 46.0053 111.599 45.7013 111.813 45.328L113.285 46.048C113.114 46.4533 112.847 46.8213 112.485 47.152C112.133 47.472 111.706 47.728 111.205 47.92C110.714 48.1013 110.175 48.192 109.589 48.192ZM119.081 48.096C118.175 48.096 117.471 47.84 116.969 47.328C116.468 46.816 116.217 46.096 116.217 45.168V40.976H114.697V39.344H114.937C115.343 39.344 115.657 39.2267 115.881 38.992C116.105 38.7573 116.217 38.4373 116.217 38.032V37.36H118.025V39.344H119.993V40.976H118.025V45.088C118.025 45.3867 118.073 45.6427 118.169 45.856C118.265 46.0587 118.42 46.2187 118.633 46.336C118.847 46.4427 119.124 46.496 119.465 46.496C119.551 46.496 119.647 46.4907 119.753 46.48C119.86 46.4693 119.961 46.4587 120.057 46.448V48C119.908 48.0213 119.743 48.0427 119.561 48.064C119.38 48.0853 119.22 48.096 119.081 48.096ZM125.841 48.192C125.009 48.192 124.247 47.9947 123.553 47.6C122.871 47.2053 122.327 46.6667 121.921 45.984C121.516 45.3013 121.313 44.528 121.313 43.664C121.313 42.7893 121.516 42.016 121.921 41.344C122.327 40.6613 122.871 40.128 123.553 39.744C124.236 39.3493 124.999 39.152 125.841 39.152C126.695 39.152 127.457 39.3493 128.129 39.744C128.812 40.128 129.351 40.6613 129.745 41.344C130.151 42.016 130.353 42.7893 130.353 43.664C130.353 44.5387 130.151 45.3173 129.745 46C129.34 46.6827 128.796 47.2213 128.113 47.616C127.431 48 126.673 48.192 125.841 48.192ZM125.841 46.512C126.353 46.512 126.807 46.3893 127.201 46.144C127.596 45.8987 127.905 45.5627 128.129 45.136C128.364 44.6987 128.481 44.208 128.481 43.664C128.481 43.12 128.364 42.6347 128.129 42.208C127.905 41.7813 127.596 41.4453 127.201 41.2C126.807 40.9547 126.353 40.832 125.841 40.832C125.34 40.832 124.887 40.9547 124.481 41.2C124.087 41.4453 123.772 41.7813 123.537 42.208C123.313 42.6347 123.201 43.12 123.201 43.664C123.201 44.208 123.313 44.6987 123.537 45.136C123.772 45.5627 124.087 45.8987 124.481 46.144C124.887 46.3893 125.34 46.512 125.841 46.512ZM132.999 44.448L132.871 36.08H134.711L134.599 44.448H132.999ZM132.871 48V45.92H134.711V48H132.871Z" fill="black"/>
<g clip-path="url(#clip0_114_82)">
<path d="M136.078 24.0781L138.569 25.5311L136.294 27.997L134.833 27.2092L136.078 24.0781Z" fill="black" fill-opacity="0.2"/>
<circle cx="142.586" cy="16.3973" r="10.5858" fill="#DC2626"/>
<path d="M139.412 8L151.11 15.1591L145.956 18.8325C142.929 18.1803 141.578 17.3544 139.672 15.1591L139.412 8Z" fill="#B91C1C"/>
<circle cx="147.361" cy="8.3026" r="8.3026" fill="#EF4444"/>
</g>
<defs>
<clipPath id="clip0_114_82">
<rect width="23.6624" height="28.3913" fill="white" transform="translate(132)"/>
</clipPath>
</defs>
</svg>
